<svg xmlns="http://www.w3.org/2000/svg" viewBox="0 0 763 998">
	<path
		d="M752,403c-.8,9.9-1.2,19.9-2.5,29.8-3.5,27.4-10.7,54-18.7,80.3-8.2,26.7-16.7,53.5-26.8,79.6-15.1,39.3-40,71.7-74.3,96.6-35.7,26-75.9,40.6-119.1,47.4-10.1,1.6-20.6.7-30.9.3-21.1-.7-42.3-1.6-63.4-3-19.1-1.3-38.1-2.9-57.1-5.1-27.9-3.2-55.4-8.9-82.3-16.8-37.8-11.1-73.4-27-106.5-48.4-24.1-15.6-46.7-33-66.9-53.4-25.3-25.6-45.8-54.6-61-87.4-13.2-28.4-20.8-58.4-25.3-89.1-3.2-21.9-3.9-44-2.7-66.3,1.7-32.1,7.7-63.2,17.4-93.7,9.5-29.7,22.1-58.2,36.5-85.9,21.8-41.7,49.1-79,85.3-109.3,33.7-28.2,71.2-49.4,114.5-58.8,16.1-3.5,32.8-4.5,49.3-6.7,2.5-.3,4.9-.6,7.4-.9,7.3,0,14.7,0,22,0,1,.2,1.9.6,2.9.7,9.6.6,19.3.9,28.9,1.7,15.6,1.3,31.1,2.7,46.6,4.6,15.9,1.9,32.1,3.4,47.7,7.1,18.3,4.4,36.2,10.8,54.1,16.6,24.7,8,50,14.4,73.4,26.1,30.1,15,54.5,36.6,74.1,63.8,13.6,18.9,23.4,39.7,32.9,60.8,23.3,51.7,36.3,105.9,41.7,162.2,1.1,11.7,1.8,23.5,2.7,35.3v12ZM430.5,669.1c15.9-1.4,31.9-2.2,47.6-4.5,40.8-5.8,77-22.1,107.9-49.5,22.4-19.9,39.8-43.7,53.6-70.2,25.4-48.7,38-101,41.3-155.6,2.1-34.9-2.2-69.2-16.2-101.5-10.9-24.9-23.4-49.1-35.9-73.2-6.8-13.1-16.2-24.5-27.9-33.5-27.6-21.1-55.4-42-83.4-62.5-26.5-19.4-56.4-31.7-88-39.4-17.2-4.2-34.7-7.1-52.2-9.9-9.1-1.5-18.5-1.7-27.7-1.8-6.3,0-12.6,1.2-18.9,1.7-23.8,1.8-47.4,4.6-69.6,14-16.9,7.1-33.5,15.4-49.6,24.1-9.7,5.2-19.5,11.2-27.3,18.8-17.5,16.9-30.6,37.5-42.7,58.6-19.6,34.3-33.6,70.9-45.8,108.3-13.5,41.3-18.3,83.3-10.5,126.2,5.5,29.9,15.8,57.9,33.7,82.7,11.5,15.9,23.7,31.2,35.6,46.8,19.3,25.3,42.3,46.3,70,62.2,23.8,13.7,49,24.1,74.9,33.3,42.5,15,86,24,131.3,24.9ZM568.5,705.4c-9.6,2.5-20.4,5.7-31.4,8.3-11.8,2.8-23.6,5-35.4,7.6-3,.7-5.9,2.3-10,3.9,28.1,4,54.2-1,76.9-19.8ZM97.5,540.5c-.9-1.5-1.2-2.2-1.7-2.8-7.1-9.5-13-19.2-8.3-31.9,1.4-3.6-6-11.8-10-12.1-3.5-.2-5.7,1.7-5,4.3,2.6,8.6,5.2,17.3,7.7,26,2.5,8.6,7.5,14.5,17.2,16.6ZM188.1,629.4c25.9,13,52.1,25.2,81,30-25.2-15-53.4-21.6-81-30ZM195.1,95.5c.3.4.5.9.8,1.3,2,0,4,.2,5.9,0,8.7-1.2,17.6-1.5,25-7,4.9-3.6,7-12.1,4.3-17.7-3.2,7.5-9.1,11.5-16.9,13.3-3.7.8-7.4,2-10.7,3.8-3.1,1.6-5.6,4.2-8.4,6.3ZM455.4,34.8c21,7.1,42,14.1,63,21.2-18.1-15.6-39.5-21.4-63-21.2ZM734.3,440.2c3.3-16,11.9-31.4,4.4-48.4-1.1,16.2-8,31.8-4.4,48.4ZM297.3,704.2c-17.9-5.9-35.8-11.8-53.7-17.6,15.5,13.4,34.4,16.3,53.7,17.6Z"/>
	<path
		d="M501,990c-3-.9-6-1.8-9-2.8-5.2-1.7-6.5-4.6-4.3-9.6,9.2-21.2,18.4-42.3,27.5-63.5,3.7-8.6,8-17.2,4.2-26.8-1.8-4.7-4.3-9.5-7.7-13.2-13.2-14.1-21-31.3-28.8-48.6-5-11-10.4-21.8-16.1-32.5-4.7-8.9-.8-16.1,9.2-16.3,17.7-.3,17.7-1.8,28,17.6,8.1,15.4,16.4,30.7,25,45.9,5.2,9.1,12.1,9.4,17.3.3,10.9-19,21.4-38.2,31.4-57.6,5.5-10.6,12.3-15.7,24.3-15.5,3.2,0,6.3.2,9.5.4,5.7.4,8,3.3,5.9,8.6-3.1,7.8-6.8,15.5-10.3,23.2-8.3,18.1-15.7,36.6-25.1,54.1-11.6,21.7-21.2,44.3-31.2,66.6-6.1,13.7-15.2,26.1-22.8,39.1-4,6.7-7.9,13.4-11.6,20.3-2.3,4.4-4.6,8.4-9.5,10.2h-6Z"/>
	<path
		d="M317.2,949.4c4.7-5.9,9.4-10.8,13-16.4,6.4-10.1,8.5-21.7,11.2-33.2,3.9-16.9,8.6-33.6,12.9-50.4,6.1-23.7,9.8-47.7,11.6-72.1.6-8.5,2.7-11,11-10.2,9.4.9,18.6,3.3,28,4.2,8.7.9,17.5,1,26.3.8,5.6-.1,8.6.9,9.2,6.4,2.1,19.3,8.6,38,7.6,57.6-1.2,24.3,3.9,47.8,9.6,71.1,3.1,12.8,6.7,25.6,10,38.3,1.2,4.5-.3,7.7-4.6,8.2-4.9.5-10.1.8-14.9-.2-7.4-1.5-12.4-6.4-14.1-13.8-2.6-10.9-4.9-22-7.2-33-2.3-10.8-6.2-18.3-19.9-19-8.3-.4-16.7-.9-25-.5-11.5.6-17.6,7.9-20,20.5-2.1,10.9-5,21.6-8.2,32.2-2.5,8.2-7.7,11.4-16.3,11.1-6.7-.2-13.4-1-20.2-1.6ZM407.8,808.2c.4,0,.7-.2,1.1-.3,0-3.7.2-7.3-.1-11-.1-1.6-1-3.7-2.2-4.7-5-4.1-15.9.1-17.6,6.4-3.4,12.9-7,25.8-10.7,38.7-1.1,3.9-1.7,7.5,1.5,10.5,3.1,3,6.8,2.7,10.7,1.5,4.9-1.5,9.8-3.1,14.8-4.2,6.1-1.4,9.1-6.3,7.7-12.4-1.9-8.1-3.4-16.3-5.1-24.5Z"/>
	<path
		d="M87.7,887.5c.5-25.5.3-50.9,1.7-76.4,1.3-24.6,4.1-49,6.4-73.6.7-7.8,3.2-10.3,10.8-10.9,28.6-2.5,55.2,3.6,79.5,18.9,24.2,15.2,28.2,55.5-2.8,72.2-11.9,6.4-24.9,9-37.9,11.5-6.3,1.2-12.7,2.6-18.9,4.1-4.9,1.2-7.4,4.8-6.9,9.6,1.6,15-2.2,29.4-3.7,44.1-.8,8.2-.7,16.6-.6,24.9,0,8.9-2.3,11.9-11.1,12.2-1.9,0-4.1-1-5.7-2.1-7-5.4-11.8-11.7-10.1-21.5.7-4.2-.3-8.6-.5-12.9,0,0-.1,0-.2,0ZM133,804.5c10.2-.5,18.7-4.4,26.4-10.2,6.9-5.2,13-11.1,14.7-19.9.4-2.1-.3-5.5-1.7-6.5-9.7-6.6-19.6-13-29.7-18.9-1.7-1-5.6-.5-7.2.8-9.3,7.6-12.7,17.8-12.1,29.6.2,4.3.4,8.6-.3,12.8-1.6,9.6.6,12.5,10,12.4Z"/>
	<path
		d="M317.9,904.9c-1,8.8-1.7,17.1-3.1,25.4-1.1,6.4-6.2,8.9-13.9,7.7-8-1.3-16-2.9-24.1-3.9-21.2-2.6-42.2-1.1-63.1,2.6-.2,0-.3.1-.5.1-12,2.4-15-1.1-12.7-13.2,4.9-25.8,9.5-51.6,14.1-77.4,5.1-28.8,10-57.5,15.1-86.3,1.5-8.6,5.2-11.4,13.8-10.7,6.1.5,12.1,1.6,18.6,2.4-2.3,7.7-5,14.8-6.4,22.2-3.5,17.7-6.5,35.6-9.5,53.4-1.8,10.5-3.2,21-4.8,31.5-.3,2.1-.4,4.3-.8,6.4-1.1,5.6-1.7,11.4-3.6,16.8-4.8,13-.4,21.2,13.6,21.8,20.1,1,40.3.9,60.4,1.3,2.5,0,4.9,0,6.9,0Z"/>
	<path
		d="M278.8,227.9c.3-6,0-12,.9-17.9,1.7-10.7,10-14.8,19.1-9,31.1,20,65.9,32,99.5,46.5,24.1,10.4,46.6,23.5,67.1,39.7,25.6,20.2,53.7,36,82.5,50.8,11.9,6.1,23.6,12.8,35.5,19.2.9.5,1.7,1,2.5,1.6,8,5.7,8,12.2-.5,17.2-9.8,5.9-20,11.2-30,16.7-25.3,13.9-50.4,28.2-76,41.5-20.1,10.4-40.8,19.9-61.5,29.2-17.8,8-36.3,14.6-53.9,22.9-26.8,12.7-53.2,26.3-79.8,39.5-6.7,3.3-13.3,6.8-20,10.2-1,.5-2.1,1-3.2,1.4-10.9,4.4-15.2,2.4-15.8-9.3-.5-10,.7-20.2,1.7-30.3,2-19.8,4.7-39.6,6.8-59.4,2.8-26.5,4.7-53,8.1-79.4,3.3-25.3,8.6-50.4,12.2-75.7,2.6-18.4,4-37,6-55.5-.4,0-.8,0-1.2-.1Z"/>
</svg>